<?xml version="1.0" encoding="utf-8" ?><svg xmlns="http://www.w3.org/2000/svg" xmlns:xlink="http://www.w3.org/1999/xlink" width="1024" height="1024" viewBox="0 0 1024 1024"><path transform="scale(2 2)" d="M80.6281 16.101C94.3754 15.727 105.316 18.3234 117.402 25.2073C124.84 29.4435 130.888 36.0734 136.928 42.1206L150.856 56.045L214.67 119.8L234.479 139.62C241.702 146.847 250.519 158.748 262.306 153C267.096 150.665 271.719 145.215 275.542 141.395L287.185 129.761L355.35 61.6541L374.157 42.8483C379.715 37.2936 385.15 31.2926 391.692 26.9117C414.822 11.4221 446.816 12.5341 468.398 30.3249C481.958 41.3372 490.501 57.355 492.093 74.7508C493.275 87.7385 490.696 100.314 484.325 111.787C479.098 121.2 472.407 127.408 464.908 134.898L450.803 149.009L387.881 211.98L368.339 231.518C364.86 234.993 360.998 238.411 357.875 242.203C353.973 246.941 352.805 253.376 355.427 259.035C357.743 264.033 373.193 278.312 378.088 283.207L445.936 351.102L464.764 369.93C472.089 377.259 479.765 384.282 484.629 393.594C488.718 401.419 491.323 409.849 492.103 418.655C493.666 435.821 488.253 452.894 477.085 466.023C468.791 475.869 456.824 483.366 444.417 486.879C440.669 487.941 435.841 488.498 431.934 488.831C418.854 489.693 405.827 486.485 394.644 479.646C385.941 474.337 380.635 468.505 373.506 461.363L358.298 446.162L296.365 384.302L277.662 365.596C274.014 361.945 270.447 358.059 266.528 354.701C261.891 350.728 255.158 349.441 249.499 352.05C244.313 354.441 229.529 370.339 224.662 375.199L157.679 442.114L138.896 460.893C132.973 466.811 126.934 473.328 119.948 477.916C109.804 484.576 100.339 487.999 88.3211 488.819C71.2685 489.927 54.4752 484.208 41.6441 472.921C17.7266 451.777 12.5442 417.513 29.2653 390.249C34.0612 382.429 40.6155 376.355 47.0434 369.924L62.936 354.032L123.647 293.278L143.004 273.951C146.484 270.48 150.215 267.074 153.453 263.381C157.966 258.232 159.271 251.893 156.328 245.597C154.286 241.227 138.051 226.021 133.758 221.723L67.5135 155.421L48.2302 136.122C41.413 129.296 34.6009 123.164 29.4275 114.952C23.3279 105.27 20.3703 95.431 19.6423 84.1084C18.6743 66.88 24.6404 49.9807 36.2104 37.1787C47.4402 24.5094 63.8211 17.1486 80.6281 16.101ZM430.435 456.953C439.592 455.899 447.283 452.09 453.122 444.804C458.598 438.059 461.158 429.409 460.234 420.77C458.723 407.458 451.217 401.508 442.347 392.665L423.419 373.772L356.879 307.272L341.71 292.123C338.219 288.629 334.432 285.11 331.464 281.175C318.794 264.378 318.834 239.66 332.021 223.159C336.15 217.996 341.034 213.408 345.708 208.76L363.938 190.557L427.026 127.567L441.817 112.818C452.439 102.252 462.09 93.7074 460.228 77.1287C459.347 68.5458 455.067 60.6728 448.342 55.2665C441.527 49.8711 432.836 47.4283 424.208 48.4834C410.531 50.1397 405.84 56.4096 396.72 65.5561L378.341 83.981L308.812 153.565C300.848 161.549 288.057 175.874 278.776 180.758C262.544 189.301 242.038 188.513 227.287 177.062C222.524 173.365 218.329 168.767 214.074 164.51L194.918 145.338L130.07 80.439L115.116 65.454C110.95 61.2747 106.633 56.5404 101.756 53.2676C96.7637 49.9183 87.9231 47.4657 81.9362 48.34C72.0581 49.513 64.9153 52.2965 58.5164 60.4034C53.1154 67.197 50.68 75.8805 51.7604 84.492C53.2744 97.2941 60.9995 103.732 69.5195 112.219L88.3062 130.951L155.54 198.12L167.987 210.543C174.316 216.856 180.938 222.851 184.925 231.002C193.198 247.653 191.14 267.58 179.637 282.188C176.542 286.177 171.13 291.249 167.413 294.943L148.93 313.427L83.4649 378.809L69.1191 393.134C58.4965 403.713 49.7797 411.734 51.767 428.241C52.7791 436.648 57.4426 445.04 64.154 450.204C71.1915 455.651 80.145 457.995 88.9488 456.694C100.887 455.027 107.593 447.021 115.549 439.048L135.241 419.306L200.29 354.189L213.439 341C220.604 333.815 226.157 327.443 235.555 323.012C251.759 315.507 270.783 317.57 285.001 328.374C289.648 331.863 294.56 337.071 298.749 341.271L317.347 359.911L382.833 425.467L397.588 440.249C408.397 451.076 413.966 457.441 430.435 456.953Z"/></svg>