<?xml version="1.0" encoding="utf-8" ?><svg xmlns="http://www.w3.org/2000/svg" xmlns:xlink="http://www.w3.org/1999/xlink" width="1024" height="1024" viewBox="0 0 1024 1024"><path transform="scale(2 2)" d="M190.13 52.1031C202.732 51.5132 215.104 55.6243 224.847 63.6391C236.283 73.1042 242.588 87.1438 242.925 101.81C243.066 107.94 243.002 114.136 242.999 120.267L242.993 156.913L242.993 273.966L242.997 369.036L242.998 396.751C242.999 402.921 243.294 409.734 242.515 415.823C239.399 440.171 220.185 457.817 195.906 459.956C181.675 460.212 170.78 456.929 159.794 447.586C149.757 439.051 143.407 426.372 142.681 413.253C142.291 406.194 142.467 398.147 142.47 390.997L142.475 351.771L142.475 228.254L142.472 139.261L142.469 112.972C142.468 107.648 142.175 101.441 142.887 96.1975C146.274 71.2606 165.115 53.9367 190.13 52.1031ZM195.474 427.765C205.169 425.834 210.765 418.583 210.934 408.778C211.072 400.771 210.978 392.762 210.974 384.753L210.973 339.166L210.981 197.556L210.982 129.353L210.979 111.966C210.978 107.969 211.174 102.028 210.399 98.2788C209.489 93.7569 206.815 89.7838 202.968 87.2384C199.222 84.7724 194.711 83.7405 190.265 84.3323C180.798 85.6129 174.665 93.0703 174.547 102.509C174.452 110.134 174.531 117.757 174.531 125.383L174.517 170.735L174.514 310.025L174.517 380.798L174.518 400.978C174.519 404.385 174.229 408.917 174.765 412.192C176.542 423.058 185.025 428.764 195.474 427.765Z"/><path transform="scale(2 2)" d="M316.302 121.358C337.16 120.213 356.5 131.995 365.088 151.048C370.149 162.278 369.498 173.261 369.484 185.201L369.48 208.159L369.48 280.286L369.489 320.398C369.491 327.723 369.877 340.151 368.586 347.032C366.842 356.522 362.389 365.304 355.762 372.318C347.443 381.293 335.062 387.51 322.759 388.03C307.993 388.379 297.277 385.437 285.851 375.438C276.083 366.863 270.105 354.772 269.222 341.805C268.916 337.16 269.025 332.032 269.028 327.33L269.039 305.257L269.035 235.824L269.026 190.681C269.023 184.412 269.05 178.125 269.052 171.858C269.061 144.969 289.227 123.097 316.302 121.358ZM321.476 355.823C330.702 354.325 337.028 347.579 337.356 338.188C337.502 333.999 337.46 329.849 337.461 325.661L337.462 303.001L337.448 232.853L337.453 189.592C337.453 186.231 337.162 181.287 337.449 178.062C338.649 164.579 333.053 152.888 317.571 153.602C308.677 154.305 301.95 160.815 301.236 169.762C300.962 173.193 301.025 176.55 301.025 179.985L301.025 195.746L301.035 247.962L301.031 308.775L301.033 327.991C301.036 336.983 299.81 345.507 307.603 351.801C312.008 355.359 315.917 356.144 321.476 355.823Z"/><path transform="scale(2 2)" d="M62.8411 162.59C88.6346 160.817 112.29 179.729 115.769 205.409C116.69 212.215 116.457 219.158 116.453 226.014L116.442 254.649L116.453 285.684C116.453 292.929 116.779 300.969 115.61 307.901C112.649 325.464 99.9782 340.321 83.3025 346.362C78.5348 348.089 75.3637 348.729 70.3867 349.429C57.8617 350.336 45.4421 346.593 35.5043 338.915C24.8239 330.802 17.9236 318.676 16.4036 305.35C15.8056 300.393 15.9972 293.374 15.9979 288.242L16.0061 260.88L15.9957 227.212C15.9957 221.446 15.8693 215.533 16.1346 209.771C16.8318 194.631 25.167 179.929 37.6175 171.351C45.5182 165.908 53.4328 163.663 62.8411 162.59ZM66.7608 317.391C75.8708 316.187 83.2651 310.713 84.2324 300.906C84.7096 296.069 84.4202 290.53 84.4207 285.636L84.4195 256.767L84.4129 227.245C84.4119 216.783 86.2914 204.89 76.8156 198.06C73.3363 195.553 70.16 194.699 65.9257 194.864C56.712 194.984 49.8465 200.876 48.2911 210.129C47.736 213.431 48.0047 217.974 48.0036 221.416L48.0041 240.98L48.0118 278.2C48.0072 285.031 47.9773 291.891 48.0414 298.715C48.0917 304.072 49.7185 308.552 53.6864 312.265C57.4623 315.799 61.6438 317.201 66.7608 317.391Z"/><path transform="scale(2 2)" d="M442.397 170.589C454.801 169.867 467.045 173.677 476.849 181.31C487.131 189.268 494.139 202.017 495.533 214.868C496.131 220.38 496.028 225.065 496.025 230.556L496.014 251.006L496.022 275.09C496.029 283.095 496.425 291.325 494.772 299.175C491.376 315.305 479.661 328.813 464.516 335.113C459.847 337.055 454.705 338.085 449.648 338.708C422.987 340.167 399.521 321.944 396.045 295.09C395.31 289.413 395.495 283.776 395.495 278.067L395.509 257.383L395.497 232.462C395.493 225.032 395.166 217.62 396.678 210.316C398.266 202.661 401.655 195.494 406.565 189.409C416.016 177.501 427.54 172.302 442.397 170.589ZM446.21 306.592C455.06 305.699 462.355 300.323 463.595 291.103C464.232 286.368 464.015 281.476 464.018 276.696L464.022 254.753L464.016 232.487C464.01 223.143 465.304 212.971 456.993 206.53C453.283 203.655 449.849 202.651 445.185 202.875C436.829 202.99 430.08 208.337 428.19 216.642C427.284 220.623 427.547 225.137 427.545 229.24L427.54 243.146C427.538 257.487 427.529 271.851 427.562 286.189C427.577 292.469 428.557 297.08 433.254 301.505C437.036 305.069 441.074 306.419 446.21 306.592Z"/></svg>